<svg xmlns="http://www.w3.org/2000/svg" viewBox="0 0 448 512"><title>angle-double-right</title><g id="Layer_8" data-name="Layer 8"><path d="M224.3,273,88.3,409a23.9,23.9,0,0,1-33.9,0L31.8,386.4a23.9,23.9,0,0,1,0-33.9l96.4-96.4L31.8,159.7a23.9,23.9,0,0,1,0-33.9L54.3,103a23.9,23.9,0,0,1,33.9,0l136,136A23.93,23.93,0,0,1,224.3,273Z" style="fill:#f91313"/></g><g id="Layer_7" data-name="Layer 7"><path d="M416.3,239l-136-136a23.9,23.9,0,0,0-33.9,0l-22.6,22.6a23.9,23.9,0,0,0,0,33.9l96.4,96.4-96.4,96.4a23.9,23.9,0,0,0,0,33.9l22.6,22.6a23.9,23.9,0,0,0,33.9,0l136-136a23.78,23.78,0,0,0,0-33.8Z" style="fill:#f91313"/></g></svg>