<svg xmlns="http://www.w3.org/2000/svg" viewBox="0 0 576 512"><title>brain</title><g id="Layer_4" data-name="Layer 4"><path d="M208,0a63.85,63.85,0,0,0-61.8,48.22c-.75,0-1.45-.22-2.2-.22a63.6,63.6,0,0,0-62.34,78A80,80,0,0,0,32,200a79.08,79.08,0,0,0,8.34,34.91C16.34,248.72,0,274.33,0,304a80,80,0,0,0,49.42,73.89A72.91,72.91,0,0,0,48,392a70.95,70.95,0,0,0,84,70.79A71.81,71.81,0,0,0,272,440V205.45a88.13,88.13,0,0,1-38.36,18.39,8.05,8.05,0,0,1-9.64-7.89V199.77a7.85,7.85,0,0,1,5.8-7.66,55.88,55.88,0,0,0,42.2-54V64A64,64,0,0,0,208,0Z" style="fill:#ff8d8d"/></g><g id="Layer_3" data-name="Layer 3"><path d="M576,304c0-29.67-16.34-55.28-40.34-69.09A79.21,79.21,0,0,0,494.34,126,63.6,63.6,0,0,0,432,48c-.75,0-1.45.2-2.2.22A63.87,63.87,0,0,0,304,64v74.07a55.86,55.86,0,0,0,42.2,54,7.84,7.84,0,0,1,5.8,7.66V216a8.06,8.06,0,0,1-9.64,7.89A88.19,88.19,0,0,1,304,205.45V440a71.81,71.81,0,0,0,140,22.79A71.19,71.19,0,0,0,456,464a72,72,0,0,0,72-72,72.92,72.92,0,0,0-1.42-14.11A80,80,0,0,0,576,304Z" style="fill:#ff8d8d"/></g></svg>