<svg xmlns="http://www.w3.org/2000/svg" viewBox="0 0 640 512"><title>chalkboard-teacher</title><g id="Layer_4" data-name="Layer 4"><path d="M208,352a22.88,22.88,0,0,0-7.06,1.09A131.91,131.91,0,0,1,160,360a132,132,0,0,1-40.95-6.91A22.82,22.82,0,0,0,112,352,112,112,0,0,0,0,464.62C.14,490.88,21.73,512,48,512H272c26.27,0,47.86-21.12,48-47.38A112,112,0,0,0,208,352Z" style="fill:#aba8a8"/><circle cx="160" cy="224" r="96" style="fill:#aba8a8"/><path d="M592,0H208c-26.47,0-48,22.25-48,49.59V96c23.42,0,45.1,6.78,64,17.8V64H576V352H512V288H384v64H307.76a127.45,127.45,0,0,1,39.69,64H592c26.47,0,48-22.25,48-49.59V49.59C640,22.25,618.47,0,592,0Z" style="fill:#aba8a8"/></g><g id="Layer_7" data-name="Layer 7"><rect x="268" y="90" width="276" height="41" rx="12" ry="12" style="fill:#aba8a8"/></g><g id="Layer_8" data-name="Layer 8"><rect x="268" y="145" width="276" height="41" rx="12" ry="12" style="fill:#aba8a8"/></g><g id="Layer_9" data-name="Layer 9"><rect x="268" y="203" width="276" height="41" rx="12" ry="12" style="fill:#aba8a8"/></g></svg>