<svg xmlns="http://www.w3.org/2000/svg" viewBox="0 0 512 512"><title>chart-bar</title><g id="Layer_7" data-name="Layer 7"><rect x="320" y="160" width="64" height="160" rx="12.8" ry="12.8" style="fill:#f91313"/></g><g id="Layer_6" data-name="Layer 6"><rect x="416" y="64" width="64" height="256" rx="12.8" ry="12.8" style="fill:#f91313"/></g><g id="Layer_5" data-name="Layer 5"><rect x="128" y="224" width="64" height="96" rx="12.8" ry="12.8" style="fill:#f91313"/></g><g id="Layer_4" data-name="Layer 4"><rect x="224" y="96" width="64" height="224" rx="12.8" ry="12.8" style="fill:#f91313"/></g><g id="Layer_2" data-name="Layer 2"><path d="M496,384H64V80A16,16,0,0,0,48,64H16A16,16,0,0,0,0,80V416a32,32,0,0,0,32,32H496a16,16,0,0,0,16-16V400A16,16,0,0,0,496,384Z" style="fill:#f91313"/></g></svg>