<svg xmlns="http://www.w3.org/2000/svg" viewBox="0 0 640 512"><title>handshake</title><g id="Layer_8" data-name="Layer 8"><path d="M434.7,64H348.8a32,32,0,0,0-21.6,8.4l-98.3,90c-.1.1-.2.3-.3.4a39.78,39.78,0,0,0-2.1,56c12.7,13.9,39.4,17.6,56.1,2.7.1-.1.3-.1.4-.2l79.9-73.2a16,16,0,1,1,21.6,23.6l-26.1,23.9L504,313.8a72,72,0,0,1,7.9,7.7V128L457.3,73.4A31.77,31.77,0,0,0,434.7,64Z" style="fill:#ff8d8d"/><path d="M544,128.2V352.1a32,32,0,0,0,32,32h64V128.2Zm48,223.9a16,16,0,1,1,16-16A16,16,0,0,1,592,352.1Z" style="fill:#ff8d8d"/></g><g id="Layer_5" data-name="Layer 5"><path d="M0,128.2V384H64a32,32,0,0,0,32-32V128.2ZM48,352.1a16,16,0,1,1,16-16A16,16,0,0,1,48,352.1Z" style="fill:#ff8d8d"/><path d="M483.9,338.7,334.6,217.5l-30,27.5a72,72,0,0,1-97.3-106.1L289.1,64H205.3a31.94,31.94,0,0,0-22.6,9.4L128,128V351.9h18.3l90.5,81.9a64,64,0,0,0,90-9.3l.2-.2,17.9,15.5a37.16,37.16,0,0,0,52.3-5.4l31.4-38.6,5.4,4.4a32,32,0,0,0,45-4.7l9.5-11.7a32.06,32.06,0,0,0-4.6-45.1Z" style="fill:#ff8d8d"/></g></svg>