<svg xmlns="http://www.w3.org/2000/svg" viewBox="0 0 512 512"><title>route</title><g id="Layer_6" data-name="Layer 6"><path d="M416,320H320a32,32,0,0,1,0-64h96s96-107,96-160a96,96,0,0,0-192,0c0,25.5,22.2,63.4,45.3,96H320a96,96,0,0,0,0,192h96a32,32,0,0,1,0,64H185.5a690.4,690.4,0,0,1-47.3,64H416a96,96,0,0,0,0-192Zm0-256a32,32,0,1,1-32,32A32,32,0,0,1,416,64Z" style="fill:#aba8a8"/></g><g id="Layer_4" data-name="Layer 4"><path d="M96,256A96,96,0,0,0,0,352c0,53,96,160,96,160s96-107,96-160A96,96,0,0,0,96,256Zm0,128a32,32,0,1,1,32-32A32,32,0,0,1,96,384Z" style="fill:#aba8a8"/></g></svg>