<svg id="Layer_1" data-name="Layer 1" xmlns="http://www.w3.org/2000/svg" viewBox="0 0 640 512"><title>truck</title><path d="M624,352H608V243.9A48,48,0,0,0,593.9,210L494,110.1A48,48,0,0,0,460.1,96H416V48A48,48,0,0,0,368,0H48A48,48,0,0,0,0,48V368a48,48,0,0,0,48,48H64a96,96,0,0,0,192,0H384a96,96,0,0,0,192,0h48a16,16,0,0,0,16-16V368A16,16,0,0,0,624,352ZM160,464a48,48,0,1,1,48-48A48,48,0,0,1,160,464Zm320,0a48,48,0,1,1,48-48A48,48,0,0,1,480,464Zm80-208H416V144h44.1L560,243.9Z" style="fill:#2c2c2c"/></svg>