<svg id="Layer_1" data-name="Layer 1" xmlns="http://www.w3.org/2000/svg" viewBox="0 0 420 122"><defs><style>.cls-1{fill:#fff;}.cls-2{fill:#ec1c24;}</style></defs><title>247_logo</title><circle class="cls-1" cx="60.65" cy="61" r="59.35"/><path class="cls-1" d="M101.23,60.38l-39.67,56a55.38,55.38,0,0,0,47.33-28.17,55.34,55.34,0,0,0-8.74-66.14A54.12,54.12,0,0,0,77.6,8.22,53.59,53.59,0,0,0,51.22,6.47c10.71,4.25,18.86,11.32,23.9,21.7a42.83,42.83,0,0,1,2.37,32.21Zm-82.29-36a54.42,54.42,0,0,1,5.73-.06A13.39,13.39,0,0,1,36.36,36.42,14.84,14.84,0,0,1,32.84,47c-2.28,2.86-4.77,5.55-7.18,8.3-1.41,1.61-2.86,3.2-4.46,5,2.33,0,4.41,0,6.48,0a1.72,1.72,0,0,0,1.62-.81q14-19.46,28-38.89c.24-.33.49-.65.73-1l.26.08V60.37c5.06,0,10,0,14.87,0a1.12,1.12,0,0,0,1.3-.94A40.13,40.13,0,0,0,45.4,8.13a3.24,3.24,0,0,0-1.62.08,54.37,54.37,0,0,0-21,12.31C21.39,21.78,20.13,23.15,18.94,24.36ZM8.71,80.28c.11.38.14.53.19.68A54.42,54.42,0,0,0,21,99.79a55.2,55.2,0,0,0,31.08,16,1.46,1.46,0,0,0,1.69-.7Q70.3,91.71,86.85,68.35c.19-.28.36-.57.62-1H86.33c-3.6,0-7.19,0-10.79,0a1.56,1.56,0,0,0-1.59,1A43.09,43.09,0,0,1,22.8,88.11,44.1,44.1,0,0,1,8.71,80.28Zm-3.21-13c.32,1.84.67,3.56.92,5.3a4.56,4.56,0,0,0,1.51,2.74C17.6,84.61,29,88.64,42.33,86.66c12.09-1.8,21.4-8.07,28-18.36.16-.26.29-.54.46-.87H58.26v8.75c-2.13,0-4.15,0-6.17,0-.79,0-1.09-.2-1.07-1,.05-2.19,0-4.38,0-6.57,0-1-.19-1.27-1.23-1.27q-21.52,0-43,0Zm-.11-.68.31,0L6,66.32c5.3-5.83,10.63-11.63,15.88-17.49a85,85,0,0,0,5.76-7,8.48,8.48,0,0,0,1.49-4A6.22,6.22,0,0,0,23,31.19c-4.14-.1-6.92,2.42-6.93,6.28,0,.84,0,1.68,0,2.61H11.45c-2.21,0-2.21,0-3,2.09A54.36,54.36,0,0,0,5.21,59.41C5.14,61.82,5.32,64.23,5.39,66.64ZM51,41.15,37.36,60.31H51Z"/><path class="cls-2" d="M101.23,60.38H77.49a42.83,42.83,0,0,0-2.37-32.21c-5-10.38-13.19-17.44-23.9-21.7A53.59,53.59,0,0,1,77.6,8.22a54.12,54.12,0,0,1,22.55,13.89,55.34,55.34,0,0,1,8.74,66.14,55.38,55.38,0,0,1-47.33,28.17Z"/><path class="cls-2" d="M18.94,24.36c1.19-1.21,2.45-2.58,3.8-3.84a54.37,54.37,0,0,1,21-12.31,3.24,3.24,0,0,1,1.62-.08A40.13,40.13,0,0,1,74.48,59.45a1.12,1.12,0,0,1-1.3.94c-4.9,0-9.81,0-14.87,0V19.74l-.26-.08c-.24.32-.5.64-.73,1q-14,19.44-28,38.89a1.72,1.72,0,0,1-1.62.81c-2.08,0-4.15,0-6.48,0,1.6-1.79,3-3.38,4.46-5,2.41-2.75,4.9-5.44,7.18-8.3a14.84,14.84,0,0,0,3.53-10.62A13.39,13.39,0,0,0,24.67,24.3,54.42,54.42,0,0,0,18.94,24.36Z"/><path class="cls-2" d="M8.71,80.28A44.1,44.1,0,0,0,22.8,88.11,43.09,43.09,0,0,0,74,68.29a1.56,1.56,0,0,1,1.59-1c3.6,0,7.19,0,10.79,0h1.15c-.26.42-.43.72-.62,1Q70.31,91.72,53.78,115.09a1.46,1.46,0,0,1-1.69.7A55.2,55.2,0,0,1,21,99.79,54.42,54.42,0,0,1,8.9,81C8.84,80.82,8.81,80.66,8.71,80.28Z"/><path class="cls-2" d="M5.49,67.31H6.78q21.52,0,43,0c1,0,1.26.31,1.23,1.27-.07,2.19,0,4.38,0,6.57,0,.84.28,1.05,1.07,1,2,0,4,0,6.17,0V67.43H70.79c-.17.33-.3.62-.46.87-6.6,10.29-15.91,16.56-28,18.36C29,88.64,17.6,84.61,7.92,75.36a4.56,4.56,0,0,1-1.51-2.74C6.16,70.88,5.82,69.15,5.49,67.31Z"/><path class="cls-2" d="M5.39,66.64c-.07-2.41-.24-4.82-.18-7.22A54.36,54.36,0,0,1,8.48,42.17c.76-2.09.76-2.09,3-2.09h4.66c0-.94,0-1.78,0-2.61,0-3.86,2.79-6.38,6.93-6.28a6.22,6.22,0,0,1,6.11,6.63,8.48,8.48,0,0,1-1.49,4,85,85,0,0,1-5.76,7C16.65,54.69,11.32,60.49,6,66.32l-.32.35Z"/><path class="cls-2" d="M51,41.15V60.31H37.36Z"/><path class="cls-1" d="M150.75,45.25h6.11V77.57h-6.11Z"/><path class="cls-1" d="M163.12,53.66h6v2.45a14.4,14.4,0,0,1,3.7-2.39,8.94,8.94,0,0,1,3.39-.67,8.21,8.21,0,0,1,6,2.48q2.08,2.11,2.08,6.24v15.8h-5.93V67.1a26.47,26.47,0,0,0-.38-5.68,3.89,3.89,0,0,0-1.34-2.14,3.74,3.74,0,0,0-2.36-.74,4.42,4.42,0,0,0-3.12,1.22,6.5,6.5,0,0,0-1.81,3.37,27.13,27.13,0,0,0-.26,4.85v9.59h-6Z"/><path class="cls-1" d="M190.85,44.85h6v8.81h3.56v5.16h-3.56V77.57h-6V58.82h-3.08V53.66h3.08Z"/><path class="cls-1" d="M227.57,67.35H208.3a6.42,6.42,0,0,0,2.23,4.05,7,7,0,0,0,4.63,1.5,8,8,0,0,0,5.78-2.35L226,72.93a11.93,11.93,0,0,1-4.53,4,14.16,14.16,0,0,1-6.26,1.29A12.37,12.37,0,0,1,206,74.63a12.07,12.07,0,0,1-3.54-8.89A12.48,12.48,0,0,1,206,56.66,11.84,11.84,0,0,1,214.87,53a12.28,12.28,0,0,1,9.18,3.61,13.07,13.07,0,0,1,3.54,9.55Zm-6-4.72a6,6,0,0,0-2.34-3.25,6.8,6.8,0,0,0-4.06-1.25,7.18,7.18,0,0,0-4.4,1.41,7.83,7.83,0,0,0-2.2,3.1Z"/><path class="cls-1" d="M231,53.66h5.14v3a6.42,6.42,0,0,1,2.22-2.7,5.35,5.35,0,0,1,3-.92,5.61,5.61,0,0,1,2.44.62L242,58.82a4.12,4.12,0,0,0-1.74-.53A2.75,2.75,0,0,0,237.91,60q-1,1.71-1,6.72l0,1.16v9.67h-6Z"/><path class="cls-1" d="M246.82,53.66h6v2.45a14.4,14.4,0,0,1,3.7-2.39A8.94,8.94,0,0,1,259.9,53a8.21,8.21,0,0,1,6,2.48Q268,57.64,268,61.77v15.8h-5.93V67.1a26.47,26.47,0,0,0-.38-5.68,3.89,3.89,0,0,0-1.34-2.14,3.74,3.74,0,0,0-2.36-.74,4.42,4.42,0,0,0-3.12,1.22,6.5,6.5,0,0,0-1.81,3.37,27.13,27.13,0,0,0-.26,4.85v9.59h-6Z"/><path class="cls-1" d="M291.46,53.66h6V77.57h-6V75a11.75,11.75,0,0,1-3.52,2.41,9.86,9.86,0,0,1-3.83.74,10.64,10.64,0,0,1-8-3.59,12.53,12.53,0,0,1-3.38-8.93A12.84,12.84,0,0,1,276,56.58,10.42,10.42,0,0,1,283.94,53a10.1,10.1,0,0,1,4,.81,11,11,0,0,1,3.49,2.44Zm-6.31,4.92a6.06,6.06,0,0,0-4.62,2,7.09,7.09,0,0,0-1.84,5,7.17,7.17,0,0,0,1.87,5.1,6.07,6.07,0,0,0,4.61,2,6.18,6.18,0,0,0,4.69-2,7.19,7.19,0,0,0,1.86-5.15,7,7,0,0,0-1.86-5.05A6.25,6.25,0,0,0,285.16,58.58Z"/><path class="cls-1" d="M304.25,44.85h6v8.81h3.56v5.16h-3.56V77.57h-6V58.82h-3.08V53.66h3.08Z"/><path class="cls-1" d="M319.36,43.82A3.67,3.67,0,0,1,322.06,45a3.8,3.8,0,0,1,1.13,2.77,3.75,3.75,0,0,1-1.12,2.74,3.62,3.62,0,0,1-2.67,1.13,3.68,3.68,0,0,1-2.73-1.15,3.86,3.86,0,0,1-1.13-2.8,3.82,3.82,0,0,1,3.81-3.82Zm-3,9.84h6V77.57h-6Z"/><path class="cls-1" d="M339,53a12.67,12.67,0,0,1,6.36,1.69,12.41,12.41,0,0,1,6.32,10.85A12.56,12.56,0,0,1,350,71.92a12.13,12.13,0,0,1-4.58,4.6,12.64,12.64,0,0,1-6.39,1.66,11.93,11.93,0,0,1-8.78-3.66,12.67,12.67,0,0,1,.47-18.23A12,12,0,0,1,339,53Zm.1,5.65a6.17,6.17,0,0,0-4.66,1.94,6.9,6.9,0,0,0-1.86,5,7,7,0,0,0,1.84,5.05,6.15,6.15,0,0,0,4.66,1.93,6.22,6.22,0,0,0,4.69-2,7.71,7.71,0,0,0,0-10A6.22,6.22,0,0,0,339.13,58.69Z"/><path class="cls-1" d="M356.61,53.66h6v2.45a14.38,14.38,0,0,1,3.7-2.39A8.94,8.94,0,0,1,369.7,53a8.21,8.21,0,0,1,6,2.48q2.08,2.11,2.08,6.24v15.8h-5.93V67.1a26.47,26.47,0,0,0-.38-5.68,3.89,3.89,0,0,0-1.34-2.14,3.74,3.74,0,0,0-2.36-.74,4.41,4.41,0,0,0-3.12,1.22,6.5,6.5,0,0,0-1.81,3.37,27.15,27.15,0,0,0-.26,4.85v9.59h-6Z"/><path class="cls-1" d="M401.26,53.66h6V77.57h-6V75a11.75,11.75,0,0,1-3.52,2.41,9.86,9.86,0,0,1-3.83.74,10.64,10.64,0,0,1-8-3.59,12.53,12.53,0,0,1-3.38-8.93,12.84,12.84,0,0,1,3.27-9.07A10.42,10.42,0,0,1,393.73,53a10.1,10.1,0,0,1,4,.81,11,11,0,0,1,3.49,2.44ZM395,58.58a6.06,6.06,0,0,0-4.62,2,7.09,7.09,0,0,0-1.84,5,7.17,7.17,0,0,0,1.87,5.1,6.07,6.07,0,0,0,4.61,2,6.18,6.18,0,0,0,4.69-2,7.19,7.19,0,0,0,1.86-5.15,7,7,0,0,0-1.86-5.05A6.25,6.25,0,0,0,395,58.58Z"/><path class="cls-1" d="M412.67,44.43h6V77.57h-6Z"/></svg>