<svg id="Layer_1" data-name="Layer 1" xmlns="http://www.w3.org/2000/svg" viewBox="0 0 100 100"><title>favicon</title><circle cx="50" cy="50" r="50" style="fill:#fff"/><path d="M84.19,49.48,50.77,96.69A46.66,46.66,0,0,0,90.64,73a46.62,46.62,0,0,0-7.36-55.72,45.59,45.59,0,0,0-19-11.7A45.15,45.15,0,0,0,42.06,4.07c9,3.58,15.89,9.54,20.14,18.28a36.08,36.08,0,0,1,2,27.13ZM14.87,19.13a45.84,45.84,0,0,1,4.83,0,11.28,11.28,0,0,1,9.85,10.2,12.5,12.5,0,0,1-3,8.94c-1.92,2.41-4,4.68-6,7-1.19,1.36-2.41,2.69-3.76,4.2,2,0,3.71,0,5.46,0a1.45,1.45,0,0,0,1.37-.68Q35.38,32.36,47.2,16c.2-.28.41-.55.62-.82l.22.07V49.47c4.26,0,8.39,0,12.52,0a1,1,0,0,0,1.09-.79A33.81,33.81,0,0,0,37.15,5.46a2.73,2.73,0,0,0-1.36.07A45.81,45.81,0,0,0,18.06,15.9C16.93,17,15.87,18.11,14.87,19.13ZM6.24,66.25c.09.32.12.45.16.57a45.85,45.85,0,0,0,10.2,15.86A46.51,46.51,0,0,0,42.79,96.16a1.23,1.23,0,0,0,1.42-.59q13.92-19.7,27.87-39.37c.16-.23.3-.48.52-.84h-1c-3,0-6.06,0-9.09,0a1.31,1.31,0,0,0-1.34.81A36.3,36.3,0,0,1,18.12,72.84,37.15,37.15,0,0,1,6.24,66.25ZM3.54,55.32c.27,1.55.56,3,.77,4.47A3.84,3.84,0,0,0,5.59,62.1c8.15,7.79,17.79,11.19,29,9.52,10.18-1.52,18-6.8,23.59-15.47.14-.21.24-.45.39-.73H48v7.38c-1.79,0-3.5,0-5.2,0-.67,0-.92-.16-.9-.87,0-1.84,0-3.69,0-5.53,0-.81-.16-1.07-1-1.07q-18.13,0-36.26,0Zm-.09-.57.26,0L4,54.48c4.46-4.91,9-9.79,13.38-14.74a71.62,71.62,0,0,0,4.85-5.93,7.14,7.14,0,0,0,1.25-3.34,5.24,5.24,0,0,0-5.15-5.58c-3.49-.08-5.83,2-5.84,5.29,0,.71,0,1.41,0,2.2H8.55c-1.86,0-1.86,0-2.5,1.76A45.8,45.8,0,0,0,3.3,48.66C3.24,50.69,3.39,52.72,3.45,54.75ZM41.86,33.28,30.38,49.42H41.86Z" style="fill:#fff"/><path d="M84.19,49.48h-20a36.08,36.08,0,0,0-2-27.13C57.95,13.6,51.08,7.65,42.06,4.07A45.15,45.15,0,0,1,64.28,5.54a45.59,45.59,0,0,1,19,11.7A46.62,46.62,0,0,1,90.64,73,46.66,46.66,0,0,1,50.77,96.69Z" style="fill:#ec1c24"/><path d="M14.87,19.13c1-1,2.06-2.17,3.2-3.23A45.81,45.81,0,0,1,35.79,5.53a2.73,2.73,0,0,1,1.36-.07A33.81,33.81,0,0,1,61.65,48.7a1,1,0,0,1-1.09.79c-4.13,0-8.26,0-12.52,0V15.24l-.22-.07c-.21.27-.42.54-.62.82Q35.39,32.37,23.59,48.76a1.45,1.45,0,0,1-1.37.68c-1.75,0-3.5,0-5.46,0,1.35-1.51,2.57-2.84,3.76-4.2,2-2.32,4.13-4.58,6-7a12.5,12.5,0,0,0,3-8.94,11.28,11.28,0,0,0-9.85-10.2A45.84,45.84,0,0,0,14.87,19.13Z" style="fill:#ec1c24"/><path d="M6.24,66.25a37.15,37.15,0,0,0,11.87,6.59A36.3,36.3,0,0,0,61.21,56.14a1.31,1.31,0,0,1,1.34-.81c3,0,6.06,0,9.09,0h1c-.22.36-.36.61-.52.84Q58.14,75.88,44.21,95.57a1.23,1.23,0,0,1-1.42.59A46.51,46.51,0,0,1,16.61,82.68,45.85,45.85,0,0,1,6.41,66.82C6.36,66.69,6.33,66.56,6.24,66.25Z" style="fill:#ec1c24"/><path d="M3.54,55.32H4.62q18.13,0,36.26,0c.87,0,1.06.26,1,1.07-.06,1.84,0,3.69,0,5.53,0,.71.23.89.9.87,1.7,0,3.4,0,5.2,0V55.42H58.55c-.15.28-.25.52-.39.73C52.6,64.82,44.75,70.1,34.57,71.62c-11.2,1.67-20.84-1.73-29-9.52a3.84,3.84,0,0,1-1.28-2.31C4.1,58.32,3.81,56.87,3.54,55.32Z" style="fill:#ec1c24"/><path d="M3.45,54.75c-.06-2-.2-4.06-.15-6.09A45.8,45.8,0,0,1,6.05,34.14c.64-1.76.64-1.76,2.5-1.76h3.93c0-.79,0-1.5,0-2.2,0-3.25,2.35-5.37,5.84-5.29a5.24,5.24,0,0,1,5.15,5.58,7.14,7.14,0,0,1-1.25,3.34,71.62,71.62,0,0,1-4.85,5.93C12.94,44.69,8.45,49.57,4,54.48l-.27.29Z" style="fill:#ec1c24"/><path d="M41.86,33.28V49.42H30.38Z" style="fill:#ec1c24"/></svg>